<svg data-v-423bf9ae="" xmlns="http://www.w3.org/2000/svg" viewBox="0 0 386 112" class="iconLeft"><!----><!----><!----><g data-v-423bf9ae="" id="73753fa0-f559-42b1-86bc-96426578c6c5" fill="white" transform="matrix(5.882352501188353,0,0,5.882352501188353,88.90345064922647,-7.855935486680487)"><path d="M0.84 6.97L0.84 5.88L7.73 5.88L7.73 6.97L4.87 6.97L4.87 15.68L3.70 15.68L3.70 6.97L0.84 6.97ZM9.39 9.74L9.39 8.74L11.91 8.74L11.91 9.66L12.08 9.66L12.08 9.66Q12.35 9.09 12.84 8.81L12.84 8.81L12.84 8.81Q13.33 8.54 13.96 8.54L13.96 8.54L13.96 8.54Q15.01 8.54 15.65 9.23L15.65 9.23L15.65 9.23Q16.30 9.91 16.34 11.23L16.34 11.23L15.19 11.40L15.19 11.40Q15.19 10.43 14.73 10.00L14.73 10.00L14.73 10.00Q14.27 9.58 13.59 9.58L13.59 9.58L13.59 9.58Q13.16 9.58 12.84 9.74L12.84 9.74L12.84 9.74Q12.53 9.91 12.32 10.21L12.32 10.21L12.32 10.21Q12.11 10.50 12.01 10.89L12.01 10.89L12.01 10.89Q11.91 11.28 11.91 11.73L11.91 11.73L11.91 14.67L13.68 14.67L13.68 15.68L9.23 15.68L9.23 14.67L10.82 14.67L10.82 9.74L9.39 9.74ZM23.39 14.59L23.39 14.50L23.23 14.50L23.23 14.50Q22.89 15.20 22.29 15.54L22.29 15.54L22.29 15.54Q21.70 15.88 21.04 15.88L21.04 15.88L21.04 15.88Q20.36 15.88 19.77 15.64L19.77 15.64L19.77 15.64Q19.18 15.41 18.74 14.96L18.74 14.96L18.74 14.96Q18.30 14.50 18.05 13.85L18.05 13.85L18.05 13.85Q17.79 13.19 17.79 12.32L17.79 12.32L17.79 12.10L17.79 12.10Q17.79 11.24 18.05 10.58L18.05 10.58L18.05 10.58Q18.30 9.93 18.74 9.47L18.74 9.47L18.74 9.47Q19.18 9.02 19.77 8.78L19.77 8.78L19.77 8.78Q20.36 8.54 21.01 8.54L21.01 8.54L21.01 8.54Q21.73 8.54 22.31 8.86L22.31 8.86L22.31 8.86Q22.89 9.17 23.23 9.83L23.23 9.83L23.39 9.83L23.39 8.74L24.49 8.74L24.49 14.25L24.49 14.25Q24.49 14.67 24.86 14.67L24.86 14.67L25.21 14.67L25.21 15.68L24.47 15.68L24.47 15.68Q24.00 15.68 23.70 15.37L23.70 15.37L23.70 15.37Q23.39 15.06 23.39 14.59L23.39 14.59ZM21.15 14.84L21.15 14.84L21.15 14.84Q21.64 14.84 22.06 14.66L22.06 14.66L22.06 14.66Q22.47 14.48 22.76 14.14L22.76 14.14L22.76 14.14Q23.06 13.80 23.23 13.33L23.23 13.33L23.23 13.33Q23.39 12.87 23.39 12.29L23.39 12.29L23.39 12.12L23.39 12.12Q23.39 11.56 23.23 11.09L23.23 11.09L23.23 11.09Q23.06 10.63 22.76 10.29L22.76 10.29L22.76 10.29Q22.46 9.95 22.04 9.77L22.04 9.77L22.04 9.77Q21.63 9.58 21.15 9.58L21.15 9.58L21.15 9.58Q20.66 9.58 20.26 9.76L20.26 9.76L20.26 9.76Q19.85 9.94 19.55 10.27L19.55 10.27L19.55 10.27Q19.25 10.60 19.08 11.07L19.08 11.07L19.08 11.07Q18.91 11.54 18.91 12.10L18.91 12.10L18.91 12.32L18.91 12.32Q18.91 13.51 19.54 14.17L19.54 14.17L19.54 14.17Q20.16 14.84 21.15 14.84ZM26.85 9.74L26.85 8.74L28.99 8.74L28.99 6.97L28.99 6.97Q28.99 6.50 29.30 6.19L29.30 6.19L29.30 6.19Q29.60 5.88 30.07 5.88L30.07 5.88L32.82 5.88L32.82 6.89L30.46 6.89L30.46 6.89Q30.09 6.89 30.09 7.31L30.09 7.31L30.09 8.74L32.98 8.74L32.98 9.74L30.09 9.74L30.09 15.68L28.99 15.68L28.99 9.74L26.85 9.74ZM37.65 6.66L37.65 6.66L37.65 6.66Q37.65 6.26 37.93 5.97L37.93 5.97L37.93 5.97Q38.22 5.68 38.63 5.68L38.63 5.68L38.63 5.68Q39.03 5.68 39.32 5.97L39.32 5.97L39.32 5.97Q39.61 6.26 39.61 6.66L39.61 6.66L39.61 6.66Q39.61 7.07 39.32 7.36L39.32 7.36L39.32 7.36Q39.03 7.64 38.63 7.64L38.63 7.64L38.63 7.64Q38.22 7.64 37.93 7.36L37.93 7.36L37.93 7.36Q37.65 7.07 37.65 6.66ZM35.66 15.68L35.66 14.67L38.09 14.67L38.09 9.74L35.91 9.74L35.91 8.74L39.19 8.74L39.19 14.67L41.45 14.67L41.45 15.68L35.66 15.68ZM45.85 5.88L45.85 11.62L46.09 11.62L48.73 8.74L50.08 8.74L50.08 8.82L47.19 12.00L47.19 12.25L50.41 15.60L50.41 15.68L49.07 15.68L46.12 12.63L45.85 12.63L45.85 15.68L44.76 15.68L44.76 5.88L45.85 5.88Z"></path></g><!----><g data-v-423bf9ae="" id="f66732ab-0b31-430d-9891-55a3b1cfd850" transform="matrix(1.1111138237847222,0,0,1.1111138237847222,0.07768814426122361,0.4442004723069175)" stroke="none" fill="white"><path d="M28.549 7.023a3.53 3.53 0 0 1-3.512-3.511C25.041 1.555 26.616-.021 28.549 0a3.47 3.47 0 0 1 3.511 3.512c.015 1.929-1.56 3.504-3.511 3.511zM37.913 7.023c1.936-.007 3.512-1.582 3.512-3.511 0-1.957-1.576-3.532-3.512-3.512a3.473 3.473 0 0 0-3.512 3.512c-.013 1.929 1.562 3.504 3.512 3.511zM51.856 78.064c4.872-.809 9.73-5.898 9.719-12.109V20.611C61.587 14.218 56.2 8.34 48.903 8.347H17.606C10.265 8.34 4.878 14.218 4.885 20.611v45.344c-.007 6.211 4.852 11.301 9.719 12.109L0 100h8.446l10.432-15.37H47.581L58.063 100h8.397L51.856 78.064zm-26.87-65.033c.002-1.136.969-2.072 2.085-2.088h12.317c1.117.016 2.088.952 2.088 2.088v3.559a2.086 2.086 0 0 1-2.088 2.088H27.072c-1.167.004-2.083-.955-2.085-2.088v-3.559zM17.301 71.45a5.592 5.592 0 0 1-5.546-5.598c-.007-3.071 2.487-5.562 5.546-5.547a5.568 5.568 0 0 1 5.598 5.547c-.013 3.082-2.508 5.575-5.598 5.598zm.713-29.464c-3.508-.021-6.369-2.421-6.362-6.363v-8.141c.025-3.396 2.219-6.356 6.362-6.363H48.445c4.148.007 6.343 2.967 6.363 6.363v8.141c.011 3.942-2.85 6.343-6.363 6.363H18.014zM43.46 65.853c-.009-3.071 2.482-5.562 5.545-5.547a5.57 5.57 0 0 1 5.6 5.547c-.016 3.081-2.51 5.574-5.6 5.598-3.063-.024-5.554-2.517-5.545-5.598z"></path></g><!----></svg>