<svg data-v-423bf9ae="" xmlns="http://www.w3.org/2000/svg" viewBox="0 0 39.875902097406986 60" class="icon"><!----><!----><!----><!----><g data-v-423bf9ae="" id="e48d0db6-261b-4a57-9170-adfb40f9cab6" transform="matrix(0.5999985351598263,0,0,0.5999985351598263,3.924816738276604e-8,0.00014778601575571315)" stroke="none" fill="black"><path d="M28.549 7.023a3.53 3.53 0 0 1-3.512-3.511C25.041 1.555 26.616-.021 28.549 0a3.47 3.47 0 0 1 3.511 3.512c.015 1.929-1.56 3.504-3.511 3.511zM37.913 7.023c1.936-.007 3.512-1.582 3.512-3.511 0-1.957-1.576-3.532-3.512-3.512a3.473 3.473 0 0 0-3.512 3.512c-.013 1.929 1.562 3.504 3.512 3.511zM51.856 78.064c4.872-.809 9.73-5.898 9.719-12.109V20.611C61.587 14.218 56.2 8.34 48.903 8.347H17.606C10.265 8.34 4.878 14.218 4.885 20.611v45.344c-.007 6.211 4.852 11.301 9.719 12.109L0 100h8.446l10.432-15.37H47.581L58.063 100h8.397L51.856 78.064zm-26.87-65.033c.002-1.136.969-2.072 2.085-2.088h12.317c1.117.016 2.088.952 2.088 2.088v3.559a2.086 2.086 0 0 1-2.088 2.088H27.072c-1.167.004-2.083-.955-2.085-2.088v-3.559zM17.301 71.45a5.592 5.592 0 0 1-5.546-5.598c-.007-3.071 2.487-5.562 5.546-5.547a5.568 5.568 0 0 1 5.598 5.547c-.013 3.082-2.508 5.575-5.598 5.598zm.713-29.464c-3.508-.021-6.369-2.421-6.362-6.363v-8.141c.025-3.396 2.219-6.356 6.362-6.363H48.445c4.148.007 6.343 2.967 6.363 6.363v8.141c.011 3.942-2.85 6.343-6.363 6.363H18.014zM43.46 65.853c-.009-3.071 2.482-5.562 5.545-5.547a5.57 5.57 0 0 1 5.6 5.547c-.016 3.081-2.51 5.574-5.6 5.598-3.063-.024-5.554-2.517-5.545-5.598z"></path></g><!----></svg>