<svg id="Calque_1" data-name="Calque 1" xmlns="http://www.w3.org/2000/svg" viewBox="0 0 300 300"><defs><style>.cls-1{fill:#3acce1;}</style></defs><title>isolated-layout</title><g id="_0a4b4c54-f554-476f-8460-8f9fbd41bb36" data-name="0a4b4c54-f554-476f-8460-8f9fbd41bb36"><path class="cls-1" d="M139.7,55.45A7.76,7.76,0,0,1,132,47.73a7.73,7.73,0,0,1,15.45-.19v.19A7.71,7.71,0,0,1,139.7,55.45Zm20.6,0a7.73,7.73,0,1,0,0-15.45,7.62,7.62,0,0,0-7.72,7.55v.18A7.71,7.71,0,0,0,160.3,55.45ZM191,211.74c10.72-1.78,21.4-13,21.38-26.64V85.34c0-14.06-11.83-27-27.88-27H115.63c-16.15,0-28,12.92-28,27V185.1c0,13.67,10.68,24.86,21.38,26.64L76.89,260H95.48l23-33.81h63.14L204.63,260h18.48ZM131.86,68.67a4.7,4.7,0,0,1,4.59-4.59h27.1a4.69,4.69,0,0,1,4.59,4.59V76.5a4.59,4.59,0,0,1-4.58,4.59H136.45a4.59,4.59,0,0,1-4.58-4.59V68.67ZM115,197.19a12.31,12.31,0,0,1-12.2-12.32,12.26,12.26,0,0,1,24.51,0v0A12.39,12.39,0,0,1,115,197.19Zm1.56-64.82c-7.71-.05-14-5.33-14-14V100.46c0-7.47,4.88-14,14-14h67c9.13,0,14,6.53,14,14v17.91c0,8.67-6.27,14-14,14Zm56,52.51a12.26,12.26,0,0,1,24.51,0v0a12.26,12.26,0,1,1-24.51,0Z"/></g></svg>