<svg id="Calque_1" data-name="Calque 1" xmlns="http://www.w3.org/2000/svg" viewBox="0 0 200 200"><defs><style>.cls-1{fill:#c7b300;}</style></defs><title>k</title><path class="cls-1" d="M165,0H35A35,35,0,0,0,0,35V165a35,35,0,0,0,35,35H165a35,35,0,0,0,35-35V35A35,35,0,0,0,165,0Zm20,165a20,20,0,0,1-20,20H35a20,20,0,0,1-20-20V35A20,20,0,0,1,35,15H165a20,20,0,0,1,20,20Z"/><path id="K" class="cls-1" d="M62.36,146H83V116l7.91-9.68L113.36,146h24.27l-32-52.77L136,54h-25.5L89.63,84.59c-1,1.63-2.07,3.28-3.14,4.94s-2.11,3.38-3.14,5.15h-.41V54H62.35V146"/></svg>