<svg id="Calque_1" data-name="Calque 1" xmlns="http://www.w3.org/2000/svg" viewBox="0 0 200 200"><defs><style>.cls-1{fill:#00a092;}</style></defs><title>n</title><path class="cls-1" d="M165,0H35A35,35,0,0,0,0,35V165a35,35,0,0,0,35,35H165a35,35,0,0,0,35-35V35A35,35,0,0,0,165,0Zm20,165a20,20,0,0,1-20,20H35a20,20,0,0,1-20-20V35A20,20,0,0,1,35,15H165a20,20,0,0,1,20,20Z"/><path id="L" class="cls-1" d="M80.05,146V118.27q0-11.2-.2-21.12t-.61-19l.41-.14q3.43,8.17,7.62,16.59t8.34,15.87L115.25,146h21.82V54H118V80.77q0,10.4.38,19.89t1.4,18.56h-.41q-3.1-7.86-7-16t-8-15.49L85.26,54H61V146H80.08"/></svg>