<svg id="Calque_1" data-name="Calque 1" xmlns="http://www.w3.org/2000/svg" viewBox="0 0 200 200"><defs><style>.cls-1{fill:#d60058;}</style></defs><title>u</title><path class="cls-1" d="M165,0H35A35,35,0,0,0,0,35V165a35,35,0,0,0,35,35H165a35,35,0,0,0,35-35V35A35,35,0,0,0,165,0Zm20,165a20,20,0,0,1-20,20H35a20,20,0,0,1-20-20V35A20,20,0,0,1,35,15H165a20,20,0,0,1,20,20Z"/><path id="L" class="cls-1" d="M62.43,53.24v51.27q.14,21.87,9.72,32.06t27.1,10.07q18.15,0,28.16-10.3t10.16-31.57V53.23H116.84v52.91q0,12.14-4.36,18T99.93,130q-8,0-12.31-6t-4.33-17.86V53.24H62.43"/></svg>